# xmcd
#
# Track frame offsets: 
#        183
#        26333
#        52308
#        79565
#        106300
#        135355
#        159063
#        181438
#        204675
#        226900
#        251153
#
# Disc length: 3592 seconds
#
# Revision: 3
# Processed by: cddbd v1.5.2PL0 Copyright (c) Steve Scherf et al.
# Submitted via: ExactAudioCopy v0.95b4
#
DISCID=870e060b
DTITLE=Dan Gibson's Solitudes - Harmony
DYEAR=1989
DGENRE=New Age
TTITLE0=Stream Of Dreams
TTITLE1=Spring Cloudburst
TTITLE2=Freedom At Sea
TTITLE3=A Night In The Everglades
TTITLE4=Arctic Life
TTITLE5=Coastal Fog
TTITLE6=Solitudes On Loon Echo Lake
TTITLE7=Desert Awakening
TTITLE8=Pacific Rainforest
TTITLE9=Timberwolves
TTITLE10=Wilderness Lost
EXTD=
EXTT0=
EXTT1=
EXTT2=
EXTT3=
EXTT4=
EXTT5=
EXTT6=
EXTT7=
EXTT8=
EXTT9=
EXTT10=
PLAYORDER=
